<svg width="460" height="347" viewBox="0 0 460 347" fill="none" xmlns="http://www.w3.org/2000/svg">
<path fill-rule="evenodd" clip-rule="evenodd" d="M459.991 231.511C459.636 271.982 448.561 311.639 427.89 346.461L356.348 304.177C369.464 282.181 377 256.471 377 229C377 147.814 311.185 82.0003 230 82.0003C148.814 82.0003 82.9995 147.814 82.9995 229C82.9995 256.307 90.4451 281.875 103.417 303.784L31.7447 345.844C11.1828 310.957 0.23227 271.266 0.0036495 230.794C-0.224971 190.322 10.2765 150.51 30.443 115.394C50.6095 80.2787 79.7238 51.1091 114.833 30.8436C149.943 10.578 189.799 -0.0626914 230.359 0.000539257C270.92 0.0638004 310.742 10.8287 345.788 31.2037C380.834 51.5786 409.857 80.8388 429.913 116.017C449.97 151.195 460.347 191.04 459.991 231.511Z" fill="black" fill-opacity="0.6"/>
</svg>
