<svg width="387" height="385" viewBox="0 0 387 385" fill="none" xmlns="http://www.w3.org/2000/svg">
<path d="M194.869 24.4531H192.236V36.6798H194.869V24.4531Z" fill="#6E6E6E"/>
<path d="M137.12 33.9677L134.645 34.8638L138.849 46.3531L141.323 45.457L137.12 33.9677Z" fill="#6E6E6E"/>
<path d="M86.118 62.5566L84.1006 64.2407L92.0006 73.6069L94.018 71.9228L86.118 62.5566Z" fill="#6E6E6E"/>
<path d="M48.0297 106.782L46.7129 109.051L57.3565 115.165L58.6733 112.896L48.0297 106.782Z" fill="#6E6E6E"/>
<path d="M27.4314 161.291L26.9741 163.872L39.0776 165.995L39.5349 163.415L27.4314 161.291Z" fill="#6E6E6E"/>
<path d="M26.822 219.528L27.2793 222.108L39.3828 219.985L38.9254 217.405L26.822 219.528Z" fill="#6E6E6E"/>
<path d="M46.276 274.456L47.5928 276.725L58.2364 270.612L56.9196 268.343L46.276 274.456Z" fill="#6E6E6E"/>
<path d="M338.21 277.488L339.526 275.219L328.883 269.105L327.566 271.374L338.21 277.488Z" fill="#6E6E6E"/>
<path d="M358.804 222.971L359.262 220.391L347.158 218.268L346.701 220.848L358.804 222.971Z" fill="#6E6E6E"/>
<path d="M359.415 164.73L358.958 162.15L346.854 164.273L347.311 166.853L359.415 164.73Z" fill="#6E6E6E"/>
<path d="M339.967 109.802L338.65 107.533L328.006 113.646L329.323 115.915L339.967 109.802Z" fill="#6E6E6E"/>
<path d="M302.801 64.8086L300.784 63.1245L292.884 72.4907L294.901 74.1748L302.801 64.8086Z" fill="#6E6E6E"/>
<path d="M252.416 35.1686L249.941 34.2725L245.738 45.7618L248.213 46.6579L252.416 35.1686Z" fill="#6E6E6E"/>
</svg>
